<svg xmlns="http://www.w3.org/2000/svg" xmlns:xlink="http://www.w3.org/1999/xlink" width="80.717" height="21.231" viewBox="0 0 80.717 21.231">
  <defs>
    <linearGradient id="linear-gradient" x1="0.976" y1="1" x2="0" gradientUnits="objectBoundingBox">
      <stop offset="0" stop-color="#6d38de"/>
      <stop offset="1" stop-color="#dd2ad8"/>
    </linearGradient>
  </defs>
  <g id="Group_131" data-name="Group 131" transform="translate(-65.148 -41.385)">
    <g id="Group_113" data-name="Group 113" transform="translate(6737 -947.872)">
      <path id="Union_2" data-name="Union 2" d="M55.548,21.007l.2-.754H53.9l.865-3.224h1.854l.466-1.738.837.224-1.531,5.716ZM51.929,20.9l.172-.643H49.794V1.593h3.995L54.216,0l.837.224-1.233,4.6h.071V8.968H57.01a2.57,2.57,0,0,0,1.665-.516,1.914,1.914,0,0,0,.634-1.572,1.882,1.882,0,0,0-.634-1.546,2.09,2.09,0,0,0-.38-.245L59.2,1.706a5.607,5.607,0,0,1,1.654.548,4.643,4.643,0,0,1,2.577,4.228,4.124,4.124,0,0,1-1.11,2.908,4.7,4.7,0,0,1-1.151.887,5.474,5.474,0,0,1,1.614,1.174,4.794,4.794,0,0,1,1.282,3.383,5.206,5.206,0,0,1-.753,2.762,5.264,5.264,0,0,1-2.167,1.942,7.5,7.5,0,0,1-3.4.714h-.205l.914-3.411a2.208,2.208,0,0,0,.8-.526,2.434,2.434,0,0,0,.688-1.745,2.519,2.519,0,0,0-.318-1.268,2.291,2.291,0,0,0-.886-.872,2.809,2.809,0,0,0-1.387-.318H53.891V15.3l.407.109L52.766,21.12Zm25.88-.643H73.766V10.844H70.859V7.408h2.907V2.1H77.81V7.408h2.908v3.436H77.81v9.408h0Zm-8.06,0H65.705V7.408h4.044V20.252h0ZM66.167,4.99a2.2,2.2,0,0,1-.621-1.572,2.185,2.185,0,0,1,.621-1.586A2.12,2.12,0,0,1,67.74,1.2a2.072,2.072,0,0,1,1.559.635,2.206,2.206,0,0,1,.608,1.586A2.221,2.221,0,0,1,69.3,4.99a2.053,2.053,0,0,1-1.559.648A2.1,2.1,0,0,1,66.167,4.99Zm-9.752.419.158-.591H54.7l.879-3.225h1.86l.4-1.481.837.224-1.419,5.3Z" transform="translate(-6671.852 989.257)" fill="url(#linear-gradient)"/>
    </g>
    <path id="Union_2-2" data-name="Union 2" d="M32.773,20.253H28.73V1.064h4.044V8.359a4.538,4.538,0,0,1,.845-.594,5.871,5.871,0,0,1,5.26,0,4.418,4.418,0,0,1,1.758,1.717,5.114,5.114,0,0,1,.621,2.551v8.219H37.213V12.932a2.208,2.208,0,0,0-.621-1.625,2.14,2.14,0,0,0-1.572-.621,2.372,2.372,0,0,0-1.163.277,2.02,2.02,0,0,0-.793.793,2.359,2.359,0,0,0-.291,1.176v7.321Zm-14.432,0H13.928l4.6-6.542-4.362-6.3H18.9l2.144,3.482,2.164-3.482h4.387l-4.275,6.22,4.537,6.623-4.676,0L20.807,16.42l-2.465,3.832Zm28.888,0H43.187V7.408H47.23V20.251Zm-33.83,0H0V1.593H13.268V5.161H4.15V8.993h8.325v3.462H4.15v4.2H13.4v3.594ZM45.221,5.637a2.094,2.094,0,0,1-1.572-.648,2.2,2.2,0,0,1-.621-1.572,2.186,2.186,0,0,1,.621-1.586A2.116,2.116,0,0,1,45.221,1.2a2.073,2.073,0,0,1,1.56.634,2.212,2.212,0,0,1,.607,1.586,2.225,2.225,0,0,1-.607,1.572A2.051,2.051,0,0,1,45.221,5.637Z" transform="translate(65.148 41.385)" fill="#272727"/>
  </g>
</svg>
